<svg width="336" height="521" viewBox="0 0 336 521" fill="none" xmlns="http://www.w3.org/2000/svg">
<g clip-path="url(#clip0_117_324)">
<path d="M193.061 7.39267C171.026 -2.06495 159.955 2.30858 140.816 14.7392C113.628 -8.35514 99.9368 -1.14283 75.7486 14.7392C59.8233 31.5151 57.5847 42.1266 56.576 61.5883C54.7153 68.0357 53.0547 70.8936 47.1095 72.307C20.8391 78.4508 15.4973 88.6916 14.9955 113.496C14.8913 124.445 17.2512 129.948 24.5817 138.907C28.8028 125.199 34.2425 120.936 47.1095 116.868C67.4111 106.518 74.9819 97.7979 83.5375 78.4492C93.2395 65.5253 102.283 64.5968 121.164 67.7305C161.792 73.4388 178.87 72.7907 186.95 56.5301C197.014 41.515 199.218 32.0924 201.286 14.7392C199.198 11.7525 196.492 9.46932 193.061 7.39267Z" fill="#A4CB26"/>
<path d="M47.1099 116.867C34.2429 120.935 28.8031 125.198 24.582 138.906C26.7315 136.567 28.7216 135.011 31.4123 133.752C33.5455 132.754 36.1187 131.943 39.5606 131.077C54.5608 125.18 63.5348 121.089 81.6206 110.965C91.8197 93.4142 97.4169 87.3325 107.144 85.3123C113.122 85.9651 118.56 86.4947 123.68 86.8787C127.202 87.1424 130.573 87.3375 133.866 87.4561C143.817 87.8147 153.057 87.4763 163.583 86.238C167.487 85.7786 171.567 85.1957 175.926 84.4784C177.752 84.1781 179.627 83.8541 181.558 83.5058C202.797 72.2548 204.017 64.7026 207.201 51.3505C207.554 31.777 205.991 21.4704 201.286 14.7383C199.218 32.0916 197.015 41.5141 186.95 56.5292C178.87 72.7898 161.793 73.4379 121.164 67.7296C102.284 64.5959 93.2399 65.5244 83.5378 78.4483C74.9823 97.797 67.4115 106.517 47.1099 116.867Z" fill="#7A9021"/>
<path d="M24.582 138.907C32.4615 148.483 38.2857 150.964 50.8936 150.829C52.3773 148.429 53.8459 146.182 55.3128 144.085C44.0005 142.725 38.5984 140.7 31.4123 133.752C28.7216 135.011 26.7315 136.568 24.582 138.907Z" fill="#0D361C"/>
<path d="M107.146 85.3125C97.4186 87.3327 91.8214 93.4144 81.6223 110.965C63.5366 121.09 54.5626 125.18 39.5624 131.078C36.1205 131.943 33.5473 132.754 31.4141 133.752C38.6002 140.7 44.0023 142.725 55.3146 144.085C71.6533 120.728 87.7358 116.08 121.166 127.585C125.062 122.768 128.646 118.656 132.07 115.268C131.521 102.088 129.312 96.154 123.682 86.8789C118.562 86.4949 113.124 85.9653 107.146 85.3125Z" fill="#30662A"/>
<path d="M133.867 87.4564C138.365 95.4349 139.518 100.113 139.361 109.02C144.786 105.167 150.075 103.341 155.916 103.624C157.957 98.6922 159.558 94.8749 163.585 86.2383C153.058 87.4766 143.818 87.815 133.867 87.4564Z" fill="#2F662A"/>
<path d="M207.203 51.3517C204.018 64.7038 202.798 72.256 181.559 83.507C179.628 83.8553 177.753 84.1792 175.927 84.4796C170.447 95.7467 168.158 100.959 166.82 106.282C169.667 107.454 172.685 109.014 175.927 110.966C190.141 107.352 199.255 106.662 207.203 109.021C212.092 110.473 216.54 113.078 221.462 116.868C233.821 129.383 234.961 138.887 233.805 157.213C238.837 150.705 241.429 146.297 243.871 131.079C243.706 116.115 245.225 107.701 250.222 92.66C251.294 62.1279 244.32 51.1062 207.203 51.3517Z" fill="#31662B"/>
<path d="M123.68 86.8789C129.31 96.1541 131.518 102.088 132.068 115.268C134.564 112.799 136.975 110.714 139.359 109.02C139.516 100.113 138.363 95.4348 133.865 87.4563C130.572 87.3378 127.201 87.1427 123.68 86.8789Z" fill="#992F10"/>
<path d="M163.583 86.2381C159.556 94.8747 157.956 98.692 155.914 103.624C159.316 103.789 162.905 104.669 166.818 106.281C168.156 100.958 170.445 95.7457 175.925 84.4785C171.567 85.1958 167.487 85.7787 163.583 86.2381Z" fill="#A6290A"/>
<path d="M47.1119 157.212C16.5198 184.326 11.8262 196.465 12.122 215.984C30.762 228.654 40.813 229.418 57.7767 219.959C72.7915 208.879 75.995 199.357 75.2717 178.288C131.842 165.217 160.443 149.222 207.203 109.021C199.256 106.661 190.142 107.351 175.928 110.965C172.686 109.013 169.668 107.454 166.821 106.281C162.908 104.67 159.318 103.789 155.917 103.624C150.075 103.341 144.787 105.167 139.362 109.021C136.978 110.714 134.567 112.799 132.071 115.269C128.647 118.656 125.062 122.768 121.166 127.585C87.7361 116.08 71.6536 120.729 55.315 144.085C53.848 146.182 52.3794 148.429 50.8957 150.829C49.6475 152.849 48.3888 154.976 47.1119 157.212Z" fill="#62A242"/>
<path d="M233.804 157.213C234.96 138.887 233.821 129.383 221.462 116.868C216.54 113.079 212.092 110.473 207.202 109.021C160.442 149.223 131.841 165.218 75.2708 178.289C75.9941 199.358 72.7906 208.88 57.7758 219.96C40.8121 229.418 30.7611 228.655 12.1211 215.985C16.3021 234.502 20.3311 243.775 42.0782 250.671C54.4457 249.199 63.6071 247.139 70.5558 241.036C71.8137 239.931 72.9991 238.693 74.118 237.302C75.0338 236.164 75.9047 234.923 76.7344 233.569C80.5219 227.385 83.4465 218.829 85.8157 206.832C85.258 200.783 86.446 198.432 96.84 199.967C98.2983 200.153 99.7027 200.308 101.057 200.428C102.16 200.526 103.23 200.601 104.269 200.65C120.785 201.442 129.531 195.932 139.361 176.242C143.632 166.844 147.996 164.985 160.229 169.377C194.419 184.417 209.038 178.821 233.804 157.213Z" fill="#41782D"/>
<path d="M243.871 131.078C241.429 146.297 238.837 150.705 233.804 157.212C209.038 178.82 194.42 184.416 160.23 169.376C147.996 164.984 143.632 166.843 139.361 176.241C129.531 195.931 120.785 201.441 104.27 200.65C113.844 202.159 120.404 201.385 127.157 197.598C128.46 196.867 129.771 196.024 131.111 195.063C133.694 193.212 136.389 190.925 139.361 188.164C141.741 185.778 143.898 184.169 145.97 183.212C149.98 181.36 153.676 181.948 158.073 184.066C160.222 185.102 162.539 186.503 165.143 188.164C171.449 195.732 176.159 200.274 182.757 203.693C185.532 205.131 188.641 206.371 192.344 207.554C224.451 215.054 240.308 206.458 254.177 185.274C258.941 174.208 260.185 165.706 258.15 157.212C256.233 149.207 251.404 141.209 243.871 131.078Z" fill="#1B5E3F"/>
<path d="M74.1172 237.302C82.5007 247.332 89.6063 254.411 98.0043 260.666C103.967 265.108 110.582 269.133 118.768 273.505C120.566 274.466 122.44 275.441 124.4 276.443L119.966 268.254C112.472 264.595 106.503 261.151 101.153 257.306C92.6607 251.205 85.7291 244.104 76.7335 233.568C75.9038 234.923 75.0329 236.164 74.1172 237.302Z" fill="#873711"/>
<path d="M112.112 237.302C115.374 247.147 119.806 257.082 126.1 268.254C135.031 227.383 129.766 214.721 105.184 207.193C106.793 217.879 108.877 227.544 112.112 237.302Z" fill="#32652C"/>
<path d="M119.968 268.253C118.559 265.712 117.311 263.236 116.154 260.666C111.653 250.675 108.519 239.266 102.593 217.068C99.3202 217.062 97.5403 216.107 95.8828 214.502C103.152 231.351 105.017 240.745 101.155 257.306C106.505 261.15 112.474 264.595 119.968 268.253Z" fill="#336528"/>
<path d="M127.157 197.598C120.404 201.385 113.844 202.159 104.27 200.649C104.559 202.877 104.861 205.055 105.183 207.193C129.766 214.72 135.031 227.382 126.1 268.253C130.82 276.631 136.587 285.704 143.693 295.953C146.161 258.977 142.48 237.756 129.57 203.821C128.798 201.794 127.994 199.721 127.157 197.598Z" fill="#10361F"/>
<path d="M96.84 199.966C86.446 198.431 85.258 200.782 85.8157 206.831C83.4465 218.828 80.5219 227.384 76.7344 233.568C85.7299 244.103 92.6615 251.204 101.154 257.305C105.016 240.744 103.151 231.351 95.8813 214.502C94.963 213.612 94.801 213.006 93.7244 211.769C96.9495 213.547 97.923 213.995 101.034 212.973C101.596 210.189 101.484 206.653 101.057 200.427C99.7027 200.307 98.2983 200.152 96.84 199.966Z" fill="#0F371F"/>
<path d="M101.032 212.974C97.9212 213.996 96.9477 213.548 93.7227 211.77C94.7992 213.007 94.9612 213.613 95.8796 214.502C97.537 216.107 99.317 217.063 102.59 217.069C108.516 239.266 111.65 250.675 116.151 260.666C113.299 249.199 112.415 244.059 112.109 237.302C108.875 227.544 106.79 217.879 105.181 207.193C104.86 205.056 104.557 202.878 104.268 200.65C103.228 200.6 102.159 200.526 101.056 200.428C101.482 206.654 101.594 210.19 101.032 212.974Z" fill="#5E3215"/>
<path d="M131.111 195.062C129.77 196.023 128.46 196.866 127.156 197.597C127.994 199.721 128.798 201.793 129.569 203.82C132.637 204.536 134.416 205.837 137.666 210.203C135.799 205.598 133.72 200.817 131.111 195.062Z" fill="#882D10"/>
<path d="M158.071 184.066C153.675 181.948 149.979 181.36 145.969 183.212V205.988C150.747 216.648 152.541 244.108 155.435 300.289C158.049 284.461 159.619 275.905 161.187 256.932C158.444 249.024 157.395 240.707 158.071 205.988C162.959 202.099 165.703 198.985 169.216 192.856C167.912 191.432 166.568 189.875 165.141 188.164C162.941 192.577 161.363 194.634 158.071 197.597V184.066Z" fill="#682514"/>
<path d="M254.178 185.274C240.309 206.459 224.452 215.054 192.345 207.555C173.122 237.076 167.7 263.689 163.945 322.329C174.949 309.409 180.313 301.352 188.63 285.717C191.947 269.104 193.551 259.722 194.382 242.481C194.873 240.363 195.246 239.383 196.659 239.229C197.88 239.468 198.452 239.745 198.815 241.036C197.848 254.941 196.693 263.265 194.382 279.213C205.38 259.912 208.968 246.571 212.476 219.959C212.779 218.09 213.14 217.084 214.753 215.503C216.942 215.363 218.239 214.889 220.025 217.069C221.045 219.332 221.402 220.815 221.223 224.295C219.96 223.463 219.252 223.431 217.988 224.295C217.185 237.308 215.673 243.803 212.476 255.006C224.695 251.704 231.519 249.719 243.034 242.481C246.583 241.144 248.006 241.016 249.025 242.481C247.529 246.019 246.192 247.592 243.034 249.707C230.022 257.275 222.635 259.522 209.48 264.039C201.534 281.735 195.466 293.321 167.301 331.964C184.032 336.205 197.494 338.178 209.48 334.5C220.329 331.169 229.969 323.21 239.731 308.118C245.49 299.21 251.295 287.822 257.413 273.432C255.62 260.344 255.843 252.566 260.049 237.302C282.697 179.046 277.271 167.291 258.151 157.213C260.186 165.706 258.942 174.209 254.178 185.274Z" fill="#0F371D"/>
<path d="M167.299 331.963C166.891 342.785 165.091 348.508 161.366 353.762C159.955 355.751 158.268 357.676 156.275 359.783C151.924 370.625 151.789 376.384 156.275 380.481C158.077 382.126 160.625 383.504 163.944 384.834C170.102 382.02 172.448 378.125 170.175 357.615C189.931 358.377 199.056 354.238 211.516 338.105L209.479 334.499C197.492 338.177 184.03 336.205 167.299 331.963Z" fill="#7BB220"/>
<path d="M211.518 338.105C224.251 336.277 231.196 334.774 242.075 328.35C252.855 333.979 257.114 337.462 260.049 344.488C272.483 345.975 279.392 345.543 291.564 341.237C297.115 351.25 302.033 356.739 311.096 358.847C314.967 359.748 319.597 360.029 325.356 359.784C330.581 355.079 333.068 351.418 334.36 347.258C318.706 339.018 312.901 331.412 307.142 313.296C298.026 318.826 293.261 318.501 285.213 313.296C263.584 316.943 254.703 314.226 239.731 308.117C229.969 323.21 220.329 331.168 209.48 334.5L211.518 338.105Z" fill="#4E902C"/>
<path d="M335.78 338.105C333.463 327.892 331.761 323.01 328.231 315.704C316.035 307.401 311.666 301.695 307.141 290.172C294.703 286.395 289.205 287.274 280.06 290.172C271.193 279.925 266.241 277.115 257.412 273.432C251.294 287.821 245.489 299.209 239.73 308.117C254.702 314.225 263.584 316.942 285.213 313.295C293.26 318.501 298.025 318.826 307.141 313.295C312.9 331.411 318.705 339.018 334.359 347.258C335.196 344.558 335.529 341.648 335.78 338.105Z" fill="#7AB31F"/>
<path d="M206.006 378.21C205.124 373.002 204.04 368.818 202.064 362.312L200.613 375.645C202.261 376.468 204.043 377.316 206.006 378.21Z" fill="#254A2A"/>
<path d="M207.084 384.834C196.667 376.438 190.264 373.241 178.205 369.178C176.808 380.349 172.824 382.734 163.945 384.834C164.756 385.415 165.555 385.981 166.342 386.53C184.347 399.101 196.508 403.598 219.306 406.633C217.003 397.851 214.499 393.062 207.084 384.834Z" fill="#0F371D"/>
<path d="M219.305 343.043C215.804 350.289 212.566 353.875 206.004 356.156C206.959 360.94 207.922 365.249 208.924 369.178L225.267 355.207C223.751 346.941 221.908 342.713 219.305 343.043Z" fill="#20462C"/>
<path d="M170.176 357.615C172.449 378.125 170.103 382.02 163.945 384.833C172.824 382.733 176.808 380.348 178.205 369.177C177.129 364.47 178.145 363.461 180.602 362.312C187.683 368.127 192.54 371.612 200.613 375.644L202.064 362.312C201.626 360.872 201.145 359.318 200.613 357.615C202.639 357.184 204.419 356.707 206.005 356.156C212.568 353.875 215.805 350.288 219.306 343.043C225.603 341.93 235.158 337.623 242.075 341.236C237.509 343.772 235.016 345.673 230.81 350.51C229.531 356.457 229.756 358.762 231.888 360.747L240.654 347.258L243.393 343.043C244.8 343.534 246.075 344.004 247.23 344.488C250.88 346.015 253.353 347.672 255.134 350.51C255.941 351.798 256.605 353.33 257.173 355.207C262.875 357.5 266.089 357.618 271.792 355.207C274.62 352.321 276.363 351.129 280.061 350.51C290.912 351.049 293.469 353.325 285.213 355.207C294.951 359.711 300.686 359.983 311.096 358.846C302.032 356.738 297.115 351.249 291.564 341.236C279.392 345.543 272.483 345.974 260.049 344.488C257.113 337.462 252.855 333.979 242.075 328.35C231.195 334.774 224.251 336.277 211.517 338.105C199.058 354.238 189.932 358.376 170.176 357.615Z" fill="#2F662B"/>
<path d="M208.922 369.177C213.92 388.775 219.898 398.92 230.806 411.089L230.715 409.913C228.779 385.092 227.323 366.427 225.265 355.207L208.922 369.177Z" fill="#0E361C"/>
<path d="M231.885 360.746C230.423 377.138 231.782 385.867 237.397 400.731L240.651 347.258L231.885 360.746Z" fill="#0D371C"/>
<path d="M242.074 402.779C251.191 386.055 256.473 375.782 271.792 355.207C266.088 357.618 262.874 357.5 257.173 355.207C244.77 373.414 244.583 384.008 242.074 402.779Z" fill="#0D381D"/>
<path d="M244.591 372.068C247.199 363.189 249.173 358.37 255.134 350.51C253.353 347.673 250.88 346.015 247.23 344.488C243.947 355.662 243.606 361.655 244.591 372.068Z" fill="#0D381D"/>
<path d="M245.906 409.162L246.203 409.208C271.636 413.081 285.987 415.265 309.535 393.626C318.106 382.182 321.094 374.421 325.353 359.784C319.594 360.029 314.964 359.747 311.093 358.847C300.682 359.983 294.947 359.711 285.21 355.207L285.133 355.214C281.86 355.508 280.002 355.677 276.942 357.616C272.985 358.757 269.666 362.462 266.737 371.225C280.383 373.568 285.129 371.502 291.561 365.444C296.786 362.674 298.154 362.619 291.561 371.225C280.489 377.336 274.207 378.229 262.922 377.044C255.478 386.06 251.548 395.844 245.906 409.162Z" fill="#09302E"/>
<path d="M262.922 377.044C274.207 378.23 280.489 377.336 291.561 371.225C298.154 362.619 296.785 362.674 291.561 365.444C285.129 371.502 280.383 373.569 266.737 371.225C265.402 373.178 264.137 375.108 262.922 377.044Z" fill="#532117"/>
<path d="M242.074 402.779C244.583 384.008 244.77 373.415 257.173 355.207C256.605 353.331 255.941 351.799 255.133 350.51C249.173 358.37 247.198 363.19 244.591 372.068C243.606 361.655 243.946 355.663 247.229 344.489C246.074 344.004 244.799 343.535 243.392 343.043L240.653 347.259L237.4 400.732C231.785 385.868 230.426 377.138 231.888 360.747C229.756 358.763 229.53 356.457 230.809 350.51C235.015 345.674 237.508 343.773 242.074 341.237C235.157 337.624 225.602 341.931 219.305 343.043C221.908 342.713 223.752 346.941 225.268 355.207C227.326 366.427 228.782 385.092 230.717 409.914L230.809 411.089C219.901 398.92 213.923 388.775 208.924 369.178C207.922 365.249 206.96 360.94 206.004 356.156C204.418 356.708 202.638 357.185 200.612 357.616C201.144 359.319 201.625 360.873 202.063 362.313C204.039 368.819 205.123 373.003 206.004 378.21C204.042 377.317 202.26 376.469 200.612 375.645C192.539 371.613 187.682 368.128 180.601 362.313C178.144 363.462 177.128 364.471 178.204 369.178C190.263 373.241 196.667 376.438 207.083 384.834C214.499 393.062 217.002 397.851 219.305 406.633V401.575L230.717 420.362L234.644 520.925H242.074L243.033 493.707L238.478 421.326L242.074 402.779Z" fill="#8E4418"/>
<path d="M234.643 520.925L230.717 420.362L219.305 401.574V406.632L229.131 421.325L232.845 520.925H234.643Z" fill="#E8B344"/>
<path d="M285.211 355.207C293.467 353.326 290.91 351.049 280.058 350.51C276.36 351.129 274.618 352.321 271.79 355.207C256.471 375.782 251.189 386.055 242.073 402.778L238.477 421.325L243.031 493.706L242.073 520.925H250.101C248.074 471.12 251.22 448.351 246.204 409.207L245.907 409.161C251.549 395.844 255.479 386.06 262.923 377.044C264.138 375.107 265.403 373.178 266.738 371.225C269.667 362.462 272.986 358.757 276.943 357.615C280.003 355.676 281.861 355.508 285.134 355.214L285.211 355.207Z" fill="#9F6726"/>
<path d="M166.339 386.531C165.552 385.981 164.754 385.415 163.943 384.835C160.623 383.505 158.076 382.128 156.274 380.482C156.439 437.27 155.505 468.248 150.762 520.926H170.174C165.14 466.193 164.711 437.029 166.339 386.531Z" fill="url(#paint0_linear_117_324)"/>
<path d="M192.344 207.554C188.642 206.371 185.533 205.131 182.758 203.693C173.587 225.993 168.931 237.883 161.189 256.933C160.585 282.93 161.076 297.278 163.945 322.329C167.7 263.689 173.122 237.076 192.344 207.554Z" fill="#6C2415"/>
<path d="M188.63 285.717C180.312 301.352 174.949 309.409 163.945 322.329C161.598 336.052 161.516 342.353 161.372 353.38L161.367 353.763C165.092 348.509 166.892 342.786 167.3 331.964C195.465 293.321 201.533 281.736 209.48 264.039C222.635 259.523 230.021 257.275 243.033 249.707C246.192 247.592 247.529 246.019 249.025 242.481C248.006 241.017 246.583 241.144 243.033 242.481C231.519 249.719 224.695 251.704 212.476 255.006C215.672 243.803 217.184 237.308 217.988 224.295C219.251 223.431 219.96 223.463 221.223 224.295C221.401 220.816 221.045 219.332 220.025 217.069C218.238 214.889 216.942 215.363 214.752 215.504C213.139 217.084 212.779 218.091 212.476 219.96C208.967 246.571 205.38 259.913 194.381 279.214C196.692 263.266 197.847 254.941 198.815 241.036C198.451 239.746 197.88 239.469 196.658 239.229C195.246 239.384 194.872 240.364 194.381 242.481C193.55 259.723 191.947 269.104 188.63 285.717Z" fill="#692513"/>
<path d="M119.965 268.253L124.399 276.443L142.253 311.73L141.478 324.255L129.312 520.925H150.761C155.504 468.247 156.438 437.269 156.273 380.481C151.787 376.384 151.923 370.625 156.273 359.783C158.266 357.676 159.953 355.751 161.365 353.762L161.37 353.379C161.514 342.352 161.596 336.05 163.942 322.328C161.073 297.278 160.582 282.929 161.186 256.932C159.618 275.905 158.048 284.461 155.434 300.289C152.54 244.108 150.747 216.648 145.968 205.988V233.206C142.922 224.004 140.546 217.314 137.664 210.203C134.415 205.837 132.636 204.536 129.568 203.82C142.478 237.756 146.159 258.977 143.691 295.953C136.585 285.704 130.818 276.63 126.098 268.253C119.804 257.082 115.372 247.146 112.109 237.301C112.414 244.058 113.299 249.198 116.15 260.666C117.308 263.236 118.556 265.712 119.965 268.253Z" fill="#87331D"/>
<path d="M74.117 237.301C72.998 238.692 71.8127 239.929 70.5547 241.034C80.0852 254.126 86.1765 258.03 98.0041 260.665C89.606 254.41 82.5004 247.331 74.117 237.301Z" fill="#0F371F"/>
<path d="M84.0182 318.475C107.044 308.242 116.061 299.487 118.769 273.504C110.583 269.133 103.968 265.108 98.0051 260.666C86.1775 258.031 80.0861 254.126 70.5557 241.035C63.607 247.139 54.4457 249.198 42.0781 250.67C43.1575 285.627 49.2815 302.18 84.0182 318.475Z" fill="#1B5E3F"/>
<path d="M142.256 311.73L124.402 276.442C122.442 275.44 120.568 274.465 118.77 273.504C116.063 299.486 107.046 308.242 84.0195 318.474C98.717 321.923 106.649 321.745 119.968 315.584C125.375 312.826 128.394 312.074 133.629 316.788C136.424 320.64 138.185 322.159 141.482 324.255L142.256 311.73Z" fill="#0F371D"/>
<path d="M67.3906 423.372L68.3212 436.259L85.3369 422.074C77.5869 423.917 73.8211 423.912 67.3906 423.372Z" fill="#34480D"/>
<path d="M69.2773 445.412C102.355 440.202 117.658 433.335 124.279 395.914C123.526 356.544 110.057 346.278 81.6197 331.963C105.532 349.756 116.028 361.363 117.568 391.698C111.149 413.928 103.983 420.193 86.1849 422.65L76.0762 436.259L69.2773 445.412Z" fill="#32492B"/>
<path d="M1.81549 411.45C11.5287 431.952 16.2204 443.885 58.9737 445.412L50.2262 437.834C36.8267 437.473 29.6176 434.905 17.6329 423.373C7.04404 410.963 4.16834 400.514 1.81549 378.691C-0.445893 389.263 -0.759365 396.128 1.81549 411.45Z" fill="#1E3F1B"/>
<path d="M60.8919 436.261L64.0075 376.525L67.3907 423.374C73.8212 423.914 77.587 423.919 85.337 422.076L88.6922 419.279L86.1875 422.652C103.986 420.195 111.152 413.93 117.571 391.7C116.031 361.365 105.535 349.757 81.6223 331.964C55.6053 325.991 45.943 328.65 30.6948 335.818C12.0715 351.496 5.67531 360.874 1.81641 378.693C4.16926 400.516 7.04496 410.965 17.6338 423.374C29.6185 434.907 36.8277 437.475 50.2272 437.836L40.7607 429.637L52.7436 433.491L46.6323 408.079L60.8919 436.261Z" fill="#70802D"/>
<path d="M68.0612 437.538L86.6347 421.4L69.1397 444.644C65.5808 441.134 63.3721 441.206 59.0741 444.764L42.7773 430.673L53.4421 434.166L47.5705 410.561L61.1112 437.779L64.1069 391.652L68.0612 437.538Z" fill="#9F6726"/>
<path fill-rule="evenodd" clip-rule="evenodd" d="M58.9757 445.412C62.6084 442.594 64.8003 441.491 68.1515 444.345C68.1654 444.357 68.179 444.369 68.1929 444.381C68.5421 444.68 68.9038 445.024 69.281 445.412L76.0798 436.259L86.1886 422.65L88.6932 419.278L85.338 422.074L68.3223 436.259L67.3918 423.372L64.0085 376.523L60.893 436.259L46.6333 408.077L52.7446 433.489L40.7617 429.635L50.2282 437.834L58.9757 445.412ZM86.6382 421.4L68.0647 437.538L64.1104 391.652L61.1146 437.779L47.574 410.561L53.4456 434.166L42.7808 430.673L59.0776 444.764C63.3756 441.206 65.5843 441.134 69.1432 444.644L86.6382 421.4Z" fill="#9F6726"/>
<path fill-rule="evenodd" clip-rule="evenodd" d="M67.822 520.925H61.2494C63.1753 477.841 62.4158 462.553 58.9727 445.412C62.6054 442.594 64.7973 441.491 68.1484 444.345L67.103 445.412C67.759 474.897 65.5546 491.438 67.822 520.925Z" fill="#9F6726"/>
<path d="M72.1536 520.925C69.5219 488.018 68.8665 471.427 69.2777 445.413C68.9005 445.025 68.5388 444.681 68.1897 444.382L68.1482 444.346L67.1028 445.413C67.7588 474.898 65.5544 491.438 67.8218 520.925H72.1536Z" fill="#8E4418"/>
<path d="M22.0682 373.514C22.9947 373.514 23.7458 372.651 23.7458 371.587C23.7458 370.523 22.9947 369.66 22.0682 369.66C21.1417 369.66 20.3906 370.523 20.3906 371.587C20.3906 372.651 21.1417 373.514 22.0682 373.514Z" fill="#A4BC2D"/>
<path d="M27.5799 384.352C28.5065 384.352 29.2576 383.489 29.2576 382.425C29.2576 381.361 28.5065 380.498 27.5799 380.498C26.6534 380.498 25.9023 381.361 25.9023 382.425C25.9023 383.489 26.6534 384.352 27.5799 384.352Z" fill="#A4BC2D"/>
<path d="M18.7128 392.784C19.6393 392.784 20.3904 391.921 20.3904 390.857C20.3904 389.792 19.6393 388.93 18.7128 388.93C17.7862 388.93 17.0352 389.792 17.0352 390.857C17.0352 391.921 17.7862 392.784 18.7128 392.784Z" fill="#A4BC2D"/>
<path d="M22.0682 412.776C22.9947 412.776 23.7458 411.913 23.7458 410.849C23.7458 409.785 22.9947 408.922 22.0682 408.922C21.1417 408.922 20.3906 409.785 20.3906 410.849C20.3906 411.913 21.1417 412.776 22.0682 412.776Z" fill="#A4BC2D"/>
<path d="M71.9159 399.286C72.8424 399.286 73.5935 398.423 73.5935 397.359C73.5935 396.294 72.8424 395.432 71.9159 395.432C70.9894 395.432 70.2383 396.294 70.2383 397.359C70.2383 398.423 70.9894 399.286 71.9159 399.286Z" fill="#A4BC2D"/>
<path d="M105.228 410.848C106.155 410.848 106.906 409.985 106.906 408.921C106.906 407.857 106.155 406.994 105.228 406.994C104.302 406.994 103.551 407.857 103.551 408.921C103.551 409.985 104.302 410.848 105.228 410.848Z" fill="#A4BC2D"/>
<path d="M79.3456 414.702C80.2721 414.702 81.0232 413.839 81.0232 412.775C81.0232 411.71 80.2721 410.848 79.3456 410.848C78.4191 410.848 77.668 411.71 77.668 412.775C77.668 413.839 78.4191 414.702 79.3456 414.702Z" fill="#A4BC2D"/>
<path d="M52.9823 408.92C53.9088 408.92 54.6599 408.058 54.6599 406.993C54.6599 405.929 53.9088 405.066 52.9823 405.066C52.0558 405.066 51.3047 405.929 51.3047 406.993C51.3047 408.058 52.0558 408.92 52.9823 408.92Z" fill="#A4BC2D"/>
<path d="M52.9823 384.352C53.9088 384.352 54.6599 383.489 54.6599 382.425C54.6599 381.361 53.9088 380.498 52.9823 380.498C52.0558 380.498 51.3047 381.361 51.3047 382.425C51.3047 383.489 52.0558 384.352 52.9823 384.352Z" fill="#A4BC2D"/>
<path d="M52.9823 359.784C53.9088 359.784 54.6599 358.921 54.6599 357.857C54.6599 356.792 53.9088 355.93 52.9823 355.93C52.0558 355.93 51.3047 356.792 51.3047 357.857C51.3047 358.921 52.0558 359.784 52.9823 359.784Z" fill="#A4BC2D"/>
<path d="M44.8339 340.514C45.7604 340.514 46.5115 339.651 46.5115 338.587C46.5115 337.523 45.7604 336.66 44.8339 336.66C43.9073 336.66 43.1562 337.523 43.1562 338.587C43.1562 339.651 43.9073 340.514 44.8339 340.514Z" fill="#A4BC2D"/>
<path d="M79.3456 340.514C80.2721 340.514 81.0232 339.651 81.0232 338.587C81.0232 337.523 80.2721 336.66 79.3456 336.66C78.4191 336.66 77.668 337.523 77.668 338.587C77.668 339.651 78.4191 340.514 79.3456 340.514Z" fill="#A4BC2D"/>
<path d="M91.326 357.858C92.2526 357.858 93.0036 356.995 93.0036 355.931C93.0036 354.867 92.2526 354.004 91.326 354.004C90.3995 354.004 89.6484 354.867 89.6484 355.931C89.6484 356.995 90.3995 357.858 91.326 357.858Z" fill="#A4BC2D"/>
<path d="M75.2714 365.082C76.1979 365.082 76.949 364.22 76.949 363.155C76.949 362.091 76.1979 361.229 75.2714 361.229C74.3448 361.229 73.5938 362.091 73.5938 363.155C73.5938 364.22 74.3448 365.082 75.2714 365.082Z" fill="#A4BC2D"/>
<path d="M106.904 369.659C107.831 369.659 108.582 368.796 108.582 367.732C108.582 366.667 107.831 365.805 106.904 365.805C105.978 365.805 105.227 366.667 105.227 367.732C105.227 368.796 105.978 369.659 106.904 369.659Z" fill="#A4BC2D"/>
<path d="M82.701 395.432C83.6276 395.432 84.3786 394.569 84.3786 393.505C84.3786 392.441 83.6276 391.578 82.701 391.578C81.7745 391.578 81.0234 392.441 81.0234 393.505C81.0234 394.569 81.7745 395.432 82.701 395.432Z" fill="#A4BC2D"/>
<path d="M43.1542 361.711C44.0807 361.711 44.8318 360.849 44.8318 359.784C44.8318 358.72 44.0807 357.857 43.1542 357.857C42.2277 357.857 41.4766 358.72 41.4766 359.784C41.4766 360.849 42.2277 361.711 43.1542 361.711Z" fill="#A4BC2D"/>
<path d="M35.0096 344.368C35.9361 344.368 36.6872 343.505 36.6872 342.441C36.6872 341.376 35.9361 340.514 35.0096 340.514C34.0831 340.514 33.332 341.376 33.332 342.441C33.332 343.505 34.0831 344.368 35.0096 344.368Z" fill="#A4BC2D"/>
<path d="M22.0682 361.229C22.9947 361.229 23.7458 360.366 23.7458 359.302C23.7458 358.238 22.9947 357.375 22.0682 357.375C21.1417 357.375 20.3906 358.238 20.3906 359.302C20.3906 360.366 21.1417 361.229 22.0682 361.229Z" fill="#A4BC2D"/>
<path d="M41.4784 375.44C42.4049 375.44 43.156 374.577 43.156 373.513C43.156 372.449 42.4049 371.586 41.4784 371.586C40.5519 371.586 39.8008 372.449 39.8008 373.513C39.8008 374.577 40.5519 375.44 41.4784 375.44Z" fill="#A4BC2D"/>
</g>
<defs>
<linearGradient id="paint0_linear_117_324" x1="167.888" y1="0.000756611" x2="167.888" y2="520.926" gradientUnits="userSpaceOnUse">
<stop stop-color="#C07C21"/>
<stop offset="1" stop-color="#6A2513"/>
</linearGradient>
<clipPath id="clip0_117_324">
<rect width="336" height="521" fill="white"/>
</clipPath>
</defs>
</svg>
